<!-- SpeedSize.com --><svg xmlns="http://www.w3.org/2000/svg"><defs><style>.icon{display:none}.icon:target{display:inline}</style></defs><svg viewBox="0 0 88 99"><g id="src-1" class="icon"><g fill="none" fill-rule="evenodd"><g><path fill="#ECE728" d="M16 5h5V0h-5z"/><path fill="#49A6A1" d="M22 5h5V0h-5z"/><path fill="#ECE728" d="M27 5h5V0h-5z"/><path fill="#49A6A1" d="M38 5h5V0h-5zm17 0h5V0h-5z"/><path fill="#86C773" d="M72 5h5V0h-5z"/><path fill="#49A6A1" d="M83 5h5V0h-5z"/><path fill="#808184" d="M27 11h5V6h-5v5zm.52-.522h3.96V6.522h-3.96v3.956z"/><path fill="#49A6A1" d="M33 11h5V6h-5z"/><path fill="#A6CE4A" d="M38 11h5V6h-5z"/><path fill="#49A6A1" d="M16 16h5v-5h-5z"/><path fill="#ECE728" d="M22 16h5v-5h-5z"/><path fill="#49A6A1" d="M27 16h5v-5h-5zm17 0h5v-5h-5zm22 0h5v-5h-5z"/><path fill="#808184" d="M16 22h5v-5h-5v5zm.52-.522h3.96v-3.956h-3.96v3.956z"/><path fill="#ECE728" d="M27 22h5v-5h-5z"/><path fill="#49A6A1" d="M38 22h5v-5h-5z"/><path fill="#808184" d="M49 22h5v-5h-5v5zm.52-.522h3.96v-3.956h-3.96v3.956z"/><path fill="#49A6A1" d="M16 27h5v-5h-5zm6 0h5v-5h-5zm11 0h5v-5h-5z"/><path fill="#ECE728" d="M44 27h5v-5h-5z"/><path fill="#B1D23E" d="M61 27h5v-5h-5z"/><path fill="#86C773" d="M72 27h5v-5h-5z"/><path fill="#808184" d="M22 33h5v-5h-5v5zm.52-.522h3.96v-3.956h-3.96v3.956zM27 33h5v-5h-5v5zm.52-.522h3.96v-3.956h-3.96v3.956z"/><path fill="#B1D23E" d="M38 33h5v-5h-5z"/><path fill="#808184" d="M49 33h5v-5h-5v5zm.52-.522h3.96v-3.956h-3.96v3.956z"/><path fill="#49A6A1" d="M83 33h5v-5h-5zm-67 5h5v-5h-5zm11 0h5v-5h-5zm6 0h5v-5h-5z"/><path fill="#B1D23E" d="M49 38h5v-5h-5z"/><path fill="#49A6A1" d="M61 38h5v-5h-5z"/><path fill="#ECE728" d="M22 44h5v-5h-5z"/><path fill="#808184" d="M33 44h5v-5h-5v5zm.52-.522h3.96v-3.956h-3.96v3.956z"/><path fill="#B1D23E" d="M38 44h5v-5h-5z"/><path fill="#49A6A1" d="M44 44h5v-5h-5zm28 0h5v-5h-5z"/><path fill="#B1D23E" d="M16 49h5v-5h-5z"/><path fill="#49A6A1" d="M27 49h5v-5h-5z"/><path fill="#ECE728" d="M38 49h5v-5h-5z"/><path fill="#808184" d="M16 55h5v-5h-5v5zm.52-.523h3.96V50.52h-3.96v3.956z"/><path fill="#ECE728" d="M27 55h5v-5h-5z"/><path fill="#49A6A1" d="M33 55h5v-5h-5z"/><path fill="#808184" d="M44 55h5v-5h-5v5zm.52-.523h3.96V50.52h-3.96v3.956zM61 55h5v-5h-5v5zm.52-.523h3.96V50.52h-3.96v3.956z"/><path fill="#49A6A1" d="M16 60h5v-5h-5z"/><path fill="#B1D23E" d="M22 60h5v-5h-5z"/><path fill="#B6D23F" d="M33 60h5v-5h-5z"/><path fill="#49A6A1" d="M49 60h5v-5h-5z"/><path fill="#808184" d="M16 66h5v-5h-5v5zm.52-.522h3.96v-3.956h-3.96v3.956z"/><path fill="#49A6A1" d="M22 66h5v-5h-5z"/><path fill="#808184" d="M27 66h5v-5h-5v5zm.52-.522h3.96v-3.956h-3.96v3.956zM38 66h5v-5h-5v5zm.52-.522h3.96v-3.956h-3.96v3.956z"/><path fill="#49A6A1" d="M44 66h5v-5h-5zm39 0h5v-5h-5z"/><path fill="#ECE728" d="M16 71h5v-5h-5z"/><path fill="#B6D23F" d="M22 71h5v-5h-5z"/><path fill="#ECE728" d="M33 71h5v-5h-5z"/><path fill="#B1D23E" d="M44 71h5v-5h-5z"/><path fill="#49A6A1" d="M49 71h5v-5h-5zm17 0h5v-5h-5z"/><path fill="#ECE728" d="M0 5h5V0H0z"/><path fill="#49A6A1" d="M11 5h5V0h-5z"/><path fill="#B1D23E" d="M0 11h5V6H0zm5 0h5V6H5z"/><path fill="#49A6A1" d="M11 11h5V6h-5zM0 16h5v-5H0z"/><path fill="#B6D23F" d="M0 22h5v-5H0zm11 0h5v-5h-5z"/><path fill="#49A6A1" d="M0 27h5v-5H0z"/><path fill="#ECE728" d="M5 27h5v-5H5zm-5 6h5v-5H0z"/><path fill="#49A6A1" d="M11 33h5v-5h-5zM0 38h5v-5H0z"/><path fill="#808184" d="M5 38h5v-5H5v5zm.52-.522h3.96v-3.956H5.52v3.956z"/><path fill="#49A6A1" d="M5 44h5v-5H5z"/><path fill="#808184" d="M11 44h5v-5h-5v5zm.52-.522h3.96v-3.956h-3.96v3.956z"/><path fill="#49A6A1" d="M0 49h5v-5H0zm11 0h5v-5h-5z"/><path fill="#ECE728" d="M0 55h5v-5H0z"/><path fill="#B1D23E" d="M5 55h5v-5H5z"/><path fill="#49A6A1" d="M5 60h5v-5H5zm-5 6h5v-5H0z"/><path fill="#A6CE4A" d="M11 66h5v-5h-5z"/><path fill="#49A6A1" d="M5 71h5v-5H5z"/><path fill="#808184" d="M22 77h5v-5h-5v5zm.52-.522h3.96v-3.956h-3.96v3.956z"/><path fill="#49A6A1" d="M27 77h5v-5h-5z"/><path fill="#B1D23E" d="M33 77h5v-5h-5z"/><path fill="#49A6A1" d="M61 77h5v-5h-5zm22 0h5v-5h-5z"/><path fill="#ECE728" d="M16 82h5v-5h-5z"/><path fill="#49A6A1" d="M22 82h5v-5h-5zm5 0h5v-5h-5z"/><path fill="#90C864" d="M38 82h5v-5h-5zm17 0h5v-5h-5z"/><path fill="#49A6A1" d="M72 82h5v-5h-5z"/><path fill="#7EC57D" d="M83 82h5v-5h-5z"/><path fill="#808184" d="M27 88h5v-5h-5v5zm.52-.522h3.96v-3.956h-3.96v3.956z"/><path fill="#49A6A1" d="M33 88h5v-5h-5z"/><path fill="#A6CE4A" d="M38 88h5v-5h-5z"/><path fill="#B6D23F" d="M16 93h5v-5h-5z"/><path fill="#808184" d="M22 93h5v-5h-5v5zm.52-.522h3.96v-3.956h-3.96v3.956z"/><path fill="#49A6A1" d="M27 93h5v-5h-5zm17 0h5v-5h-5z"/><path fill="#90C864" d="M66 93h5v-5h-5z"/><path fill="#49A6A1" d="M16 99h5v-5h-5z"/><path fill="#ECE728" d="M27 99h5v-5h-5z"/><path fill="#B6D23F" d="M38 99h5v-5h-5z"/><path fill="#9ACB55" d="M49 99h5v-5h-5z"/><path fill="#49A6A1" d="M0 77h5v-5H0z"/><path fill="#B1D23E" d="M5 77h5v-5H5z"/><path fill="#ECE728" d="M0 82h5v-5H0z"/><path fill="#808184" d="M11 82h5v-5h-5v5zm.52-.522h3.96v-3.956h-3.96v3.956z"/><path fill="#B1D23E" d="M0 88h5v-5H0z"/><path fill="#808184" d="M5 88h5v-5H5v5zm.52-.522h3.96v-3.956H5.52v3.956z"/><path fill="#A6CE4A" d="M11 88h5v-5h-5z"/><path fill="#49A6A1" d="M0 93h5v-5H0z"/><path fill="#ECE728" d="M0 99h5v-5H0z"/><path fill="#B6D23F" d="M11 99h5v-5h-5z"/></g></g></g></svg><svg viewBox="0 0 88 99"><g id="src-2" class="icon"><g fill="none" fill-rule="evenodd"><g><g><path fill="#49A6A1" d="M66 5h5V0h-5z"/><path fill="#ECE728" d="M61 5h5V0h-5z"/><path fill="#49A6A1" d="M55 5h5V0h-5z"/><path fill="#ECE728" d="M44 5h5V0h-5zM28 5h5V0h-5z"/><path fill="#86C773" d="M11 5h5V0h-5z"/><path fill="#ECE728" d="M0 5h5V0H0z"/><path fill="#808184" d="M55 11h5V6h-5v5zm.52-.522h3.96V6.522h-3.96v3.956z"/><path fill="#ECE728" d="M50 11h5V6h-5z"/><path fill="#A6CE4A" d="M44 11h5V6h-5z"/><path fill="#808184" d="M66 16h5v-5h-5v5zm.52-.522h3.96v-3.956h-3.96v3.956z"/><path fill="#49A6A1" d="M61 16h5v-5h-5z"/><path fill="#808184" d="M55 16h5v-5h-5v5zm.52-.522h3.96v-3.956h-3.96v3.956z"/><path fill="#ECE728" d="M39 16h5v-5h-5zm-22 0h5v-5h-5zm49 6h5v-5h-5z"/><path fill="#49A6A1" d="M55 22h5v-5h-5z"/><path fill="#ECE728" d="M44 22h5v-5h-5z"/><path fill="#808184" d="M33 22h5v-5h-5v5zm.52-.522h3.96v-3.956h-3.96v3.956z"/><path fill="#ECE728" d="M66 28h5v-5h-5z"/><path fill="#808184" d="M61 28h5v-5h-5v5zm.52-.522h3.96v-3.956h-3.96v3.956z"/><path fill="#ECE728" d="M55 28h5v-5h-5zm-5 0h5v-5h-5z"/><path fill="#49A6A1" d="M39 28h5v-5h-5z"/><path fill="#B1D23E" d="M22 28h5v-5h-5z"/><path fill="#86C773" d="M11 28h5v-5h-5z"/><path fill="#49A6A1" d="M66 33h5v-5h-5z"/><path fill="#ECE728" d="M61 33h5v-5h-5z"/><path fill="#808184" d="M44 33h5v-5h-5v5zm.52-.522h3.96v-3.956h-3.96v3.956z"/><path fill="#B6D23F" d="M33 33h5v-5h-5z"/><path fill="#ECE728" d="M0 33h5v-5H0zm66 6h5v-5h-5z"/><path fill="#808184" d="M55 39h5v-5h-5v5zm.52-.522h3.96v-3.956h-3.96v3.956z"/><path fill="#ECE728" d="M50 39h5v-5h-5z"/><path fill="#B1D23E" d="M33 39h5v-5h-5z"/><path fill="#808184" d="M22 39h5v-5h-5v5zm.52-.522h3.96v-3.956h-3.96v3.956z"/><path fill="#49A6A1" d="M61 44h5v-5h-5z"/><path fill="#ECE728" d="M50 44h5v-5h-5z"/><path fill="#808184" d="M44 44h5v-5h-5v5zm.52-.522h3.96v-3.956h-3.96v3.956z"/><path fill="#ECE728" d="M39 44h5v-5h-5zm-28 0h5v-5h-5z"/><path fill="#808184" d="M66 50h5v-5h-5v5zm.52-.523h3.96v-3.956h-3.96v3.956z"/><path fill="#ECE728" d="M55 50h5v-5h-5z"/><path fill="#49A6A1" d="M44 50h5v-5h-5z"/><path fill="#B1D23E" d="M66 54h5v-5h-5z"/><path fill="#49A6A1" d="M55 54h5v-5h-5z"/><path fill="#808184" d="M50 54h5v-5h-5v5zm.52-.522h3.96v-3.956h-3.96v3.956z"/><path fill="#ECE728" d="M39 54h5v-5h-5zm-17 0h5v-5h-5zm44 6h5v-5h-5z"/><path fill="#808184" d="M61 60h5v-5h-5v5zm.52-.522h3.96v-3.956h-3.96v3.956z"/><path fill="#B6D23F" d="M50 60h5v-5h-5z"/><path fill="#ECE728" d="M33 60h5v-5h-5z"/><path fill="#808184" d="M66 65h5v-5h-5v5zm.52-.523h3.96v-3.956h-3.96v3.956z"/><path fill="#ECE728" d="M61 65h5v-5h-5z"/><path fill="#808184" d="M55 65h5v-5h-5v5zm.52-.523h3.96v-3.956h-3.96v3.956zM44 65h5v-5h-5v5zm.52-.523h3.96v-3.956h-3.96v3.956z"/><path fill="#ECE728" d="M39 65h5v-5h-5zM0 65h5v-5H0z"/><path fill="#49A6A1" d="M66 71h5v-5h-5zm-16 0h5v-5h-5z"/><path fill="#808184" d="M39 71h5v-5h-5v5zm.52-.522h3.96v-3.956h-3.96v3.956z"/><path fill="#ECE728" d="M33 71h5v-5h-5z"/><path fill="#808184" d="M17 71h5v-5h-5v5zm.52-.522h3.96v-3.956h-3.96v3.956z"/><path fill="#49A6A1" d="M83 5h5V0h-5z"/><path fill="#ECE728" d="M72 5h5V0h-5z"/><path fill="#B1D23E" d="M83 11h5V6h-5z"/><path fill="#808184" d="M77 11h5V6h-5v5zm.52-.522h3.96V6.522h-3.96v3.956zM72 11h5V6h-5v5zm.52-.522h3.96V6.522h-3.96v3.956z"/><path fill="#ECE728" d="M83 16h5v-5h-5zm0 6h5v-5h-5z"/><path fill="#B6D23F" d="M72 22h5v-5h-5z"/><path fill="#ECE728" d="M83 28h5v-5h-5z"/><path fill="#49A6A1" d="M77 28h5v-5h-5zm6 5h5v-5h-5z"/><path fill="#808184" d="M72 33h5v-5h-5v5zm.52-.522h3.96v-3.956h-3.96v3.956z"/><path fill="#ECE728" d="M83 39h5v-5h-5z"/><path fill="#A6CE4A" d="M77 39h5v-5h-5z"/><path fill="#808184" d="M77 44h5v-5h-5v5zm.52-.522h3.96v-3.956h-3.96v3.956z"/><path fill="#B1D23E" d="M72 44h5v-5h-5z"/><path fill="#ECE728" d="M83 50h5v-5h-5zm-11 0h5v-5h-5z"/><path fill="#49A6A1" d="M83 54h5v-5h-5z"/><path fill="#B1D23E" d="M77 54h5v-5h-5z"/><path fill="#ECE728" d="M77 60h5v-5h-5zm6 5h5v-5h-5z"/><path fill="#A6CE4A" d="M72 65h5v-5h-5z"/><path fill="#ECE728" d="M77 71h5v-5h-5z"/><path fill="#B1D23E" d="M61 77h5v-5h-5z"/><path fill="#808184" d="M55 77h5v-5h-5v5zm.52-.522h3.96v-3.956h-3.96v3.956z"/><path fill="#B1D23E" d="M50 77h5v-5h-5z"/><path fill="#808184" d="M22 77h5v-5h-5v5zm.52-.522h3.96v-3.956h-3.96v3.956z"/><path fill="#ECE728" d="M0 77h5v-5H0z"/><path fill="#49A6A1" d="M66 82h5v-5h-5z"/><path fill="#808184" d="M61 82h5v-5h-5v5zm.52-.523h3.96v-3.956h-3.96v3.956z"/><path fill="#ECE728" d="M55 82h5v-5h-5z"/><path fill="#49A6A1" d="M44 82h5v-5h-5zm-16 0h5v-5h-5z"/><path fill="#ECE728" d="M11 82h5v-5h-5z"/><path fill="#7EC57D" d="M0 82h5v-5H0z"/><path fill="#808184" d="M55 88h5v-5h-5v5zm.52-.522h3.96v-3.956h-3.96v3.956z"/><path fill="#B1D23E" d="M50 88h5v-5h-5z"/><path fill="#ECE728" d="M44 88h5v-5h-5z"/><path fill="#B6D23F" d="M66 93h5v-5h-5z"/><path fill="#ECE728" d="M61 93h5v-5h-5z"/><path fill="#49A6A1" d="M55 93h5v-5h-5z"/><path fill="#808184" d="M39 93h5v-5h-5v5zm.52-.522h3.96v-3.956h-3.96v3.956z"/><path fill="#49A6A1" d="M17 93h5v-5h-5zm49 6h5v-5h-5z"/><path fill="#ECE728" d="M55 99h5v-5h-5zm-11 0h5v-5h-5z"/><path fill="#9ACB55" d="M33 99h5v-5h-5z"/><path fill="#ECE728" d="M83 77h5v-5h-5z"/><path fill="#808184" d="M77 77h5v-5h-5v5zm.52-.522h3.96v-3.956h-3.96v3.956z"/><path fill="#49A6A1" d="M83 82h5v-5h-5z"/><path fill="#ECE728" d="M72 82h5v-5h-5z"/><path fill="#B1D23E" d="M83 88h5v-5h-5z"/><path fill="#ECE728" d="M77 88h5v-5h-5z"/><path fill="#808184" d="M72 88h5v-5h-5v5zm.52-.522h3.96v-3.956h-3.96v3.956z"/><path fill="#B6D23F" d="M83 93h5v-5h-5z"/><path fill="#ECE728" d="M83 99h5v-5h-5z"/><path fill="#B6D23F" d="M72 99h5v-5h-5z"/></g></g></g></g></svg></svg>